<?xml version="1.0" encoding="UTF-8" standalone="no"?>
<svg
   xmlns:dc="http://purl.org/dc/elements/1.1/"
   xmlns:cc="http://creativecommons.org/ns#"
   xmlns:rdf="http://www.w3.org/1999/02/22-rdf-syntax-ns#"
   xmlns:svg="http://www.w3.org/2000/svg"
   xmlns="http://www.w3.org/2000/svg"
   xmlns:sodipodi="http://sodipodi.sourceforge.net/DTD/sodipodi-0.dtd"
   xmlns:inkscape="http://www.inkscape.org/namespaces/inkscape"
   version="1.0"
   x="0px"
   y="0px"
   viewBox="0 0 100 77.913"
   enable-background="new 0 0 100 77.913"
   xml:space="preserve"
   id="svg4"
   sodipodi:docname="bird.svg"
   inkscape:version="0.92.2 2405546, 2018-03-11"><metadata
     id="metadata10"><rdf:RDF><cc:Work
         rdf:about=""><dc:format>image/svg+xml</dc:format><dc:type
           rdf:resource="http://purl.org/dc/dcmitype/StillImage" /><dc:title></dc:title></cc:Work></rdf:RDF></metadata><defs
     id="defs8" /><sodipodi:namedview
     pagecolor="#ffffff"
     bordercolor="#666666"
     borderopacity="1"
     objecttolerance="10"
     gridtolerance="10"
     guidetolerance="10"
     inkscape:pageopacity="0"
     inkscape:pageshadow="2"
     inkscape:window-width="1366"
     inkscape:window-height="768"
     id="namedview6"
     showgrid="false"
     inkscape:zoom="3.0290195"
     inkscape:cx="-8.7648913"
     inkscape:cy="38.956501"
     inkscape:window-x="0"
     inkscape:window-y="0"
     inkscape:window-maximized="0"
     inkscape:current-layer="svg4" /><path
     d="M87.838,3.242c-1.454-3.438-16.457-8.989-21.414,13.153l-26.173,19.63L1.098,59.468l1.961,0.679l5.202-1.518L0,63.508  l2.709,0.938l28.024-8.328c0,0,12.643,1.727,22.494,1.734c-0.464,0.929-0.928,1.857-1.393,2.786  c-0.469,0.939,3.497,10.33,4.962,14.802c-2.47,0.375-4.941,0.751-7.411,1.126c-0.883,0.134-0.506,1.471,0.369,1.338  c2.602-0.395,5.203-0.79,7.804-1.185c2.601,0.395,5.203,0.79,7.803,1.185c0.875,0.133,1.252-1.204,0.369-1.338  c-2.491-0.379-4.983-0.757-7.475-1.136c-0.113-0.385-0.227-0.77-0.341-1.154c-0.442-1.498-0.884-2.995-1.327-4.493  c-0.827-2.798-1.652-5.596-2.479-8.394c-0.006-0.02-0.012-0.032-0.017-0.049c0.3-0.602,9.757-4.912,9.757-4.912  s-0.004,0-0.005-0.001C98.2,44.06,79.276,15.709,86.517,11.306C89.562,9.455,100,6.679,100,6.679  C100,3.52,87.838,3.242,87.838,3.242z"
     id="path2" /><path
     style="fill:#ffffff;fill-opacity:1;stroke-width:0.33013985"
     d="m 49.227103,77.428842 c -0.119686,-0.193657 -0.143538,-0.426181 -0.053,-0.516715 0.09054,-0.09054 1.851025,-0.42352 3.9122,-0.739966 3.265423,-0.50133 3.734017,-0.651993 3.642083,-1.171002 -0.05803,-0.327605 -1.07583,-3.21374 -2.261784,-6.413627 -2.61411,-7.053289 -2.693767,-7.463016 -1.793845,-9.227006 0.382068,-0.748915 0.69467,-1.441866 0.69467,-1.539887 0,-0.09802 -1.077081,-0.178827 -2.393513,-0.179567 -3.088868,-0.0016 -10.473304,-0.551165 -15.929248,-1.185205 L 30.752847,55.957111 16.704186,60.128557 C 3.3355611,64.098079 2.6023484,64.278303 1.5569865,63.851752 L 0.45844907,63.403501 4.3155396,61.145398 C 6.4369393,59.903438 8.1048484,58.81951 8.0220044,58.736664 7.9391604,58.653819 6.8075589,58.902857 5.5073348,59.290081 3.8504779,59.783515 2.8898272,59.909638 2.2959918,59.711693 1.5371394,59.45874 3.4778702,58.21714 20.887798,47.817418 L 40.326903,36.205578 53.359807,26.44337 66.392714,16.681161 67.40932,13.474255 C 69.420674,7.1293992 72.224426,3.1809574 76.053695,1.3006253 77.702744,0.49087456 78.34516,0.3642311 80.769033,0.37106107 c 2.404564,0.006775 3.052555,0.13664947 4.527567,0.90743923 0.946762,0.4947426 1.880507,1.1968582 2.074992,1.560257 0.275994,0.5157025 0.695255,0.6621604 1.910156,0.6672647 2.192564,0.00921 5.872164,0.5649211 7.897388,1.1926982 1.863203,0.5775542 3.188214,1.6425689 2.370271,1.905174 -0.251688,0.080806 -2.686057,0.8414647 -5.409711,1.6903532 -5.689055,1.7731236 -8.075431,2.8153216 -8.677223,3.7895926 -0.863683,1.39826 -1.085259,3.987099 -0.705853,8.246981 0.790514,8.875698 0.394673,14.631787 -1.319153,19.182359 -2.475114,6.571951 -8.479004,12.109143 -17.019369,15.696402 -5.655051,2.375327 -12.390392,5.690941 -12.390392,6.099436 0,0.754423 4.04181,14.002845 4.32611,14.180312 0.162501,0.101439 1.669751,0.371371 3.349447,0.599851 3.815696,0.519029 4.209477,0.633046 4.209477,1.218803 0,0.579927 0.314607,0.590264 -4.468185,-0.146803 -3.864666,-0.595575 -4.076164,-0.595665 -7.758286,-0.0033 -4.514316,0.726337 -4.189864,0.706628 -4.459166,0.270886 z"
     id="path4520"
     inkscape:connector-curvature="0" /></svg>