<svg xmlns:dc="http://purl.org/dc/elements/1.1/" xmlns:cc="http://creativecommons.org/ns#" xmlns:rdf="http://www.w3.org/1999/02/22-rdf-syntax-ns#" xmlns:svg="http://www.w3.org/2000/svg" xmlns="http://www.w3.org/2000/svg" xmlns:sodipodi="http://sodipodi.sourceforge.net/DTD/sodipodi-0.dtd" xmlns:inkscape="http://www.inkscape.org/namespaces/inkscape" version="1.1" x="0px" y="0px" viewBox="0 0 100 125"><g transform="translate(0,-952.36218)"><path style="text-indent:0;text-transform:none;direction:ltr;block-progression:tb;baseline-shift:baseline;color:#000000;enable-background:accumulate;" d="m 49.874998,965.36319 a 3.0003,3.0003 0 0 0 -2.125,1.03125 c -11.5951,13.33919 -22.75,29.17253 -22.75,44.65626 0,15.3811 10.9929,28.3125 25,28.3125 14.0071,0 25.000004,-12.9314 25.000004,-28.3125 0,-15.48383 -11.155204,-31.31709 -22.750004,-44.65626 a 3.0003,3.0003 0 0 0 -2.375,-1.03125 z m 0.125,7.78125 c 10.2677,12.33125 19,26.32023 19,37.90626 0,12.5589 -8.7205,22.3125 -19,22.3125 -10.2795,0 -19,-9.7536 -19,-22.3125 0,-11.58603 8.7322,-25.57503 19,-37.90626 z m -14,34.15626 a 3.0003,3.0003 0 0 0 -2.9062,2.7813 c -0.5825,6.49 2.2793,13.3719 7.25,16.9999 a 3.0063519,3.0063519 0 1 0 3.5624,-4.8437 c -2.545,-1.8576 -5.1998,-7.6567 -4.8437,-11.625 a 3.0003,3.0003 0 0 0 -3.0625,-3.3125 z" fill="#000000" fill-opacity="1" stroke="none" marker="none" visibility="visible" display="inline" overflow="visible"/></g><text x="0" y="115" fill="#000000" font-size="5px" font-weight="bold" font-family="'Helvetica Neue', Helvetica, Arial-Unicode, Arial, Sans-serif">Created by Aybige</text><text x="0" y="120" fill="#000000" font-size="5px" font-weight="bold" font-family="'Helvetica Neue', Helvetica, Arial-Unicode, Arial, Sans-serif">from the Noun Project</text></svg>