<svg xmlns="http://www.w3.org/2000/svg" xmlns:xlink="http://www.w3.org/1999/xlink" version="1.1" x="0px" y="0px" viewBox="0 0 95 118.75" enable-background="new 0 0 95 95" xml:space="preserve"><path d="M64.242,72.573c5.135-6.442,8.385-16.962,4.443-26.265c-0.916-2.162-1.814-4.342-2.908-6.417  C59.779,28.516,51.613,18.331,47.5,6.361c-4.113,11.97-12.281,22.155-18.277,33.53c-1.092,2.075-1.992,4.255-2.908,6.417  c-3.941,9.303-0.691,19.822,4.443,26.265c-7.105,1.615-11.744,4.226-11.744,7.179c0,4.908,12.754,8.888,28.486,8.888  s28.486-3.979,28.486-8.888C75.986,76.798,71.35,74.188,64.242,72.573z M47.5,80.709c4.246,0.016,8.449-1.229,12.094-3.767  c1.877,0.784,3.002,1.755,3.002,2.809c0,2.6-6.76,4.71-15.096,4.71c-8.338,0-15.096-2.11-15.096-4.71  c0-1.054,1.125-2.024,3.002-2.809C39.049,79.481,43.254,80.725,47.5,80.709z M47.5,86.815c-12.504,0-22.643-3.161-22.643-7.063  c0-2.098,2.949-3.978,7.605-5.271c0.15,0.151,0.297,0.315,0.449,0.461c0.275,0.259,0.564,0.486,0.85,0.729  c-3.248,1.062-5.252,2.497-5.252,4.081c0,3.271,8.502,5.925,18.99,5.925s18.99-2.653,18.99-5.925c0-1.584-2.004-3.02-5.252-4.081  c0.285-0.242,0.576-0.47,0.85-0.729c0.152-0.146,0.299-0.31,0.447-0.461c4.658,1.293,7.607,3.173,7.607,5.271  C70.143,83.654,60.004,86.815,47.5,86.815z"/><text x="0" y="110" fill="#000000" font-size="5px" font-weight="bold" font-family="'Helvetica Neue', Helvetica, Arial-Unicode, Arial, Sans-serif">Created by Guilherme Furtado</text><text x="0" y="115" fill="#000000" font-size="5px" font-weight="bold" font-family="'Helvetica Neue', Helvetica, Arial-Unicode, Arial, Sans-serif">from the Noun Project</text></svg>