<?xml version="1.0" encoding="UTF-8" standalone="no"?>
<svg
   xmlns:dc="http://purl.org/dc/elements/1.1/"
   xmlns:cc="http://creativecommons.org/ns#"
   xmlns:rdf="http://www.w3.org/1999/02/22-rdf-syntax-ns#"
   xmlns:svg="http://www.w3.org/2000/svg"
   xmlns="http://www.w3.org/2000/svg"
   xmlns:sodipodi="http://sodipodi.sourceforge.net/DTD/sodipodi-0.dtd"
   xmlns:inkscape="http://www.inkscape.org/namespaces/inkscape"
   version="1.1"
   x="0px"
   y="0px"
   viewBox="0 0 100 125"
   id="svg10"
   sodipodi:docname="water.svg"
   inkscape:version="0.92.2 2405546, 2018-03-11">
  <metadata
     id="metadata16">
    <rdf:RDF>
      <cc:Work
         rdf:about="">
        <dc:format>image/svg+xml</dc:format>
        <dc:type
           rdf:resource="http://purl.org/dc/dcmitype/StillImage" />
        <dc:title></dc:title>
      </cc:Work>
    </rdf:RDF>
  </metadata>
  <defs
     id="defs14" />
  <sodipodi:namedview
     pagecolor="#ffffff"
     bordercolor="#666666"
     borderopacity="1"
     objecttolerance="10"
     gridtolerance="10"
     guidetolerance="10"
     inkscape:pageopacity="0"
     inkscape:pageshadow="2"
     inkscape:window-width="1366"
     inkscape:window-height="768"
     id="namedview12"
     showgrid="false"
     inkscape:zoom="5.3400704"
     inkscape:cx="30.640785"
     inkscape:cy="57.948328"
     inkscape:window-x="0"
     inkscape:window-y="0"
     inkscape:window-maximized="0"
     inkscape:current-layer="svg10" />
  <g
     transform="translate(0,-952.36218)"
     id="g4">
    <path
       style="text-indent:0;text-transform:none;direction:ltr;block-progression:tb;baseline-shift:baseline;color:#000000;enable-background:accumulate;"
       d="m 49.874998,965.36319 a 3.0003,3.0003 0 0 0 -2.125,1.03125 c -11.5951,13.33919 -22.75,29.17253 -22.75,44.65626 0,15.3811 10.9929,28.3125 25,28.3125 14.0071,0 25.000004,-12.9314 25.000004,-28.3125 0,-15.48383 -11.155204,-31.31709 -22.750004,-44.65626 a 3.0003,3.0003 0 0 0 -2.375,-1.03125 z m 0.125,7.78125 c 10.2677,12.33125 19,26.32023 19,37.90626 0,12.5589 -8.7205,22.3125 -19,22.3125 -10.2795,0 -19,-9.7536 -19,-22.3125 0,-11.58603 8.7322,-25.57503 19,-37.90626 z m -14,34.15626 a 3.0003,3.0003 0 0 0 -2.9062,2.7813 c -0.5825,6.49 2.2793,13.3719 7.25,16.9999 a 3.0063519,3.0063519 0 1 0 3.5624,-4.8437 c -2.545,-1.8576 -5.1998,-7.6567 -4.8437,-11.625 a 3.0003,3.0003 0 0 0 -3.0625,-3.3125 z"
       fill="#000000"
       fill-opacity="1"
       stroke="none"
       marker="none"
       visibility="visible"
       display="inline"
       overflow="visible"
       id="path2" />
  </g>
  <path
     style="fill:#ffffff;fill-opacity:1;stroke-width:0.529661"
     d="M 43.359084,85.658374 C 32.464269,82.052399 25.476695,71.504476 25.476695,58.664448 c 0,-8.060552 2.472747,-15.714008 8.103707,-25.081975 4.755192,-7.910991 14.675407,-20.552812 16.128082,-20.552812 1.03847,0 3.319937,2.240388 7.157012,7.028147 17.193371,21.453243 21.743339,38.085451 14.414902,52.693029 -2.406018,4.795853 -6.863478,9.208882 -11.731958,11.615016 -3.311063,1.636414 -4.435138,1.91366 -8.483465,2.092404 -3.58788,0.158411 -5.369244,-0.02648 -7.705891,-0.799883 z M 57.62572,79.218046 C 65.642941,75.289015 70.470371,64.912144 68.888257,55.008505 67.332476,45.269699 60.942271,33.487272 50.334619,20.798821 c -0.202583,-0.242322 -1.915433,1.545284 -3.806332,3.972458 -15.040075,19.305564 -19.16847,34.273414 -12.72072,46.120056 0.779462,1.432129 2.805454,3.889142 4.502204,5.460037 5.646063,5.227256 12.44134,6.235741 19.315949,2.866674 z"
     id="path823"
     inkscape:connector-curvature="0" />
  <path
     style="fill:#ffffff;fill-opacity:1;stroke-width:0.529661"
     d="m 38.794493,72.957629 c -3.103126,-3.103126 -4.959115,-7.347997 -5.259536,-12.029192 -0.283232,-4.413364 0.218862,-5.525895 2.49388,-5.525895 1.946687,0 2.689383,0.910531 2.689383,3.297131 0,2.719025 1.739097,7.511011 3.554589,9.794475 3.060211,3.84903 3.010594,3.724131 2.05739,5.178904 -1.276876,1.948759 -3.1082,1.712083 -5.535706,-0.715423 z"
     id="path825"
     inkscape:connector-curvature="0" />
</svg>
