<svg xmlns:dc="http://purl.org/dc/elements/1.1/" xmlns:cc="http://creativecommons.org/ns#" xmlns:rdf="http://www.w3.org/1999/02/22-rdf-syntax-ns#" xmlns:svg="http://www.w3.org/2000/svg" xmlns="http://www.w3.org/2000/svg" xmlns:sodipodi="http://sodipodi.sourceforge.net/DTD/sodipodi-0.dtd" xmlns:inkscape="http://www.inkscape.org/namespaces/inkscape" viewBox="0 0 32 40.00000125" version="1.1" x="0px" y="0px"><g transform="translate(0,-1020.3622)"><path style="text-indent:0;text-transform:none;direction:ltr;block-progression:tb;baseline-shift:baseline;color:#000000;enable-background:accumulate;" d="M 16 0 C 7.1693687 0 -1.1564823e-018 7.1693003 0 16 C 0 24.8306 7.1693687 32 16 32 C 24.830641 32 32 24.8306 32 16 C 32 7.1693003 24.830641 0 16 0 z M 16 1 C 24.290194 1 31 7.7098003 31 16 C 31 24.2902 24.290194 31 16 31 C 7.709815 31 1 24.2902 1 16 C 1 7.7098003 7.709815 1 16 1 z M 12.65625 6.03125 C 12.1033 6.07425 11.44909 6.19205 10.6875 6.40625 A 0.38691908 0.38691908 0 1 0 10.90625 7.15625 C 12.32305 6.75775 13.22445 6.7429 13.84375 6.875 C 13.68284 6.909 13.51312 6.9486 13.34375 7 C 12.41176 7.2821 11.35106 7.79215 10.3125 8.40625 A 0.38691908 0.38691908 0 1 0 10.71875 9.0625 C 11.72292 8.4687 12.73029 7.97065 13.5625 7.71875 C 13.76622 7.65675 13.98108 7.62455 14.15625 7.59375 C 13.63803 7.90305 13.10638 8.3188 12.59375 8.8125 C 11.4728 9.892 10.38444 11.35985 9.5 12.96875 C 8.61555 14.57775 7.94392 16.31045 7.65625 17.96875 C 7.36858 19.62705 7.46335 21.2083 8.21875 22.4375 L 8.21875 22.46875 C 9.71478 24.86215 12.87593 25.96875 16 25.96875 C 19.12406 25.96875 22.2856 24.86215 23.78125 22.46875 L 23.78125 22.4375 C 24.53665 21.2084 24.63216 19.62715 24.34375 17.96875 C 24.05533 16.31035 23.38736 14.57785 22.5 12.96875 C 21.61255 11.35975 20.50253 9.8921 19.375 8.8125 C 18.24747 7.7329 17.08702 7 15.96875 7 C 15.86375 7 15.76193 7.01825 15.65625 7.03125 C 15.27891 6.66745 14.79916 6.294 14.0625 6.125 C 13.86346 6.079 13.64063 6.04625 13.40625 6.03125 C 13.17188 6.01725 12.93271 6.00925 12.65625 6.03125 z M 12.46875 11.5625 A 0.38691908 0.38691908 0 0 1 12.5625 11.5625 A 0.38691908 0.38691908 0 0 1 12.8125 11.625 L 15.9375 13.875 L 19.09375 11.65625 A 0.38696059 0.38696059 0 1 1 19.5625 12.3125 L 19.21875 12.53125 C 19.80911 12.94595 20.0515 13.699 19.84375 14.375 C 19.60197 15.1618 18.79458 15.64925 17.96875 15.53125 C 17.3271 15.43325 16.83474 14.95845 16.65625 14.34375 L 16.15625 14.6875 A 0.38691908 0.38691908 0 0 1 15.71875 14.6875 L 15.34375 14.40625 C 15.14727 14.98495 14.67848 15.43735 14.0625 15.53125 C 13.2421 15.64845 12.43485 15.18405 12.1875 14.40625 C 11.92757 13.71185 12.18585 12.94445 12.75 12.53125 L 12.375 12.25 A 0.38691908 0.38691908 0 0 1 12.46875 11.5625 z M 18.5625 13 L 17.34375 13.84375 C 17.34375 14.30785 17.69369 14.687 18.09375 14.75 C 18.56783 14.818 18.96415 14.57805 19.09375 14.15625 C 19.23002 13.71285 19.08603 13.29155 18.65625 13.09375 A 0.38691908 0.38691908 0 0 1 18.5625 13 z M 13.40625 13.03125 A 0.38691908 0.38691908 0 0 1 13.34375 13.09375 C 12.95692 13.28695 12.74485 13.7054 12.90625 14.125 L 12.9375 14.15625 C 13.06696 14.57755 13.46411 14.8169 13.9375 14.75 C 14.3191 14.689 14.62691 14.34115 14.65625 13.90625 L 13.4375 13.03125 A 0.38691908 0.38691908 0 0 1 13.40625 13.03125 z M 13.71875 13.65625 A 0.28283916 0.28283916 0 0 1 13.75 13.65625 A 0.28283916 0.28283916 0 0 1 13.78125 13.65625 A 0.28283916 0.28283916 0 0 1 13.9375 13.71875 A 0.28283916 0.28283916 0 0 1 14 13.78125 A 0.28283916 0.28283916 0 0 1 14.0625 13.9375 A 0.28283916 0.28283916 0 0 1 13.90625 14.1875 A 0.28283916 0.28283916 0 0 1 13.78125 14.21875 A 0.28283916 0.28283916 0 0 1 13.5 13.9375 A 0.28283916 0.28283916 0 0 1 13.5 13.90625 A 0.28283916 0.28283916 0 0 1 13.5625 13.75 A 0.28283916 0.28283916 0 0 1 13.71875 13.65625 z M 18.1875 13.65625 A 0.28283916 0.28283916 0 0 1 18.21875 13.65625 A 0.28283916 0.28283916 0 0 1 18.25 13.65625 A 0.28283916 0.28283916 0 0 1 18.34375 13.6875 A 0.28283916 0.28283916 0 0 1 18.46875 13.78125 A 0.28283916 0.28283916 0 0 1 18.53125 13.9375 A 0.28283916 0.28283916 0 0 1 18.28125 14.21875 A 0.28283916 0.28283916 0 0 1 18.25 14.21875 A 0.28283916 0.28283916 0 0 1 17.96875 13.9375 A 0.28283916 0.28283916 0 0 1 17.96875 13.90625 A 0.28283916 0.28283916 0 0 1 18.15625 13.6875 A 0.28283916 0.28283916 0 0 1 18.1875 13.65625 z M 15.1875 16.4375 L 16.6875 16.4375 L 16.8125 16.4375 L 17.65625 17.1875 L 19.25 18.875 L 15.96875 22.09375 L 12.75 18.875 L 14.34375 17.1875 L 15.1875 16.4375 z M 15.46875 17.21875 L 14.90625 17.75 L 14.0625 18.625 L 15.96875 19.1875 L 17.9375 18.625 L 17.09375 17.75 L 16.53125 17.21875 L 15.46875 17.21875 z M 14.53125 19.5625 L 15.96875 21 L 17.4375 19.5625 L 15.96875 20 L 14.53125 19.5625 z " transform="translate(-5e-7,1020.3622)" fill="#000000" fill-opacity="1" stroke="none" marker="none" visibility="visible" display="inline" overflow="visible"/></g><text x="0" y="47.000001" fill="#000000" font-size="5px" font-weight="bold" font-family="'Helvetica Neue', Helvetica, Arial-Unicode, Arial, Sans-serif">Created by Chameleon Design</text><text x="0" y="52.000001" fill="#000000" font-size="5px" font-weight="bold" font-family="'Helvetica Neue', Helvetica, Arial-Unicode, Arial, Sans-serif">from the Noun Project</text></svg>