<svg xmlns:dc="http://purl.org/dc/elements/1.1/" xmlns:cc="http://creativecommons.org/ns#" xmlns:rdf="http://www.w3.org/1999/02/22-rdf-syntax-ns#" xmlns:svg="http://www.w3.org/2000/svg" xmlns="http://www.w3.org/2000/svg" xmlns:sodipodi="http://sodipodi.sourceforge.net/DTD/sodipodi-0.dtd" xmlns:inkscape="http://www.inkscape.org/namespaces/inkscape" version="1.1" x="0px" y="0px" viewBox="0 0 100 125"><g transform="translate(0,-952.36218)"><path style="text-indent:0;text-transform:none;direction:ltr;block-progression:tb;baseline-shift:baseline;color:#000000;enable-background:accumulate;" d="m 28.514187,965.35475 c -4.0441,0 -9.5292,1.34415 -10.5585,5.18549 L 6.0540881,1030.5171 c -0.0979,2.4258 -0.0334,4.9002 -0.0312,6.9972 0,2.4642 3.1639,2.2408 4.0607999,0.6873 2.7265,-2.4598 6.8048,-2.9794 10.152399,-2.9989 3.287,0 6.232,0.6098 8.0906,1.4682 0.2609,0.1274 0.5497,0.1969 0.8399,0.2023 0.2903,0.01 0.5816,-0.053 0.847,-0.171 1.8722,-0.8609 4.8347,-1.4995 8.1219,-1.4995 3.6872,0.1436 7.1774,0.5248 10.0585,2.8427 0.9259,0.8011 2.7826,0.8656 3.6236,0 0.3819,-0.4671 1.4634,-1.2494 3.1238,-1.8118 1.8297,-0.6198 4.2729,-1.0309 6.9349,-1.0309 3.2763,0 6.2184,0.6386 8.0905,1.4995 0.2631,0.1224 0.5532,0.1866 0.8435,0.1866 0.2902,0 0.5803,-0.064 0.8434,-0.1866 1.8723,-0.8609 4.8143,-1.4995 8.0906,-1.4995 2.662,0 5.1051,0.4111 6.9348,1.0309 1.83,0.6198 2.9583,1.5353 3.2175,1.968 0.8363,1.4484 4.0922,1.675 4.0922,-0.6873 -0.0294,-2.3202 0.0604,-4.7909 -0.0313,-7.0597 l -11.9016,-59.91436 c -1.0949,-4.086 -7.5376,-5.14982 -10.5896,-5.18549 -2.3905,0 -4.5898,0.47233 -6.4351,1.37446 -1.8423,-0.90378 -4.0693,-1.37446 -6.4663,-1.37446 -3.3717,0 -6.504,0.87688 -8.559,2.68646 -2.056,-1.80599 -5.2126,-2.68646 -8.5905,-2.68646 -2.398,0 -4.5925,0.47284 -6.435,1.37446 -1.8425,-0.90169 -4.0682,-1.37446 -6.4662,-1.37446 z m 0,3.99845 c 1.5672,0 2.9862,0.30464 4.1234,0.74971 l -1.6244,15.65019 c -1.5559,-0.43133 -3.2706,-0.68723 -5.0918,-0.68723 -2.4977,0.13492 -5.0204,0.51531 -7.0598,1.34323 l 2.8114,-14.11954 c 0.6382,-2.38144 4.5698,-2.89674 6.8412,-2.93636 z m 12.9012,0 c 3.3406,0 5.9182,1.48076 6.6224,2.53027 l -0.0312,14.80677 c -2.4146,-1.10802 -5.3754,-1.60912 -7.622,-1.62437 -1.9299,0 -3.7445,0.26737 -5.3729,0.7497 l 1.5931,-15.40028 c 1.2162,-0.61618 2.8994,-1.06209 4.8106,-1.06209 z m 17.1495,0 c 1.9145,0 3.6031,0.44791 4.8108,1.06209 l 1.5931,15.40028 c -1.6275,-0.48212 -3.439,-0.7497 -5.373,-0.7497 -2.7887,0.11311 -5.3114,0.60207 -7.5907,1.59313 l 0.0312,-14.83801 c 0.7632,-1.0346 3.2734,-2.46779 6.5286,-2.46779 z m 12.9014,0 c 2.227,0 6.2525,0.74 6.841,2.93636 l 2.8115,14.11954 c -2.3883,-0.83965 -4.9253,-1.32893 -7.0286,-1.34323 -1.8258,0 -3.5352,0.25618 -5.0917,0.68723 l -1.6244,-15.65019 c 1.1388,-0.44395 2.5351,-0.74971 4.0922,-0.74971 z m -45.5449,19.71112 c 1.7611,0 3.3777,0.30849 4.6857,0.74971 l -1.6244,15.71267 c -1.7834,-0.4753 -3.7841,-0.7497 -5.904,-0.7497 -2.9483,0.09 -5.698899,0.6117 -8.153099,1.5307 l 2.748999,-13.80721 c 0.8012,-2.9901 5.3908,-3.41614 8.2468,-3.43617 z m 14.4632,0 c 2.9064,0.13389 5.5327,0.56352 7.622,2.56151 l 0,14.93177 c -2.7945,-1.19 -6.1594,-1.764 -8.7466,-1.7806 -2.2668,0 -4.4053,0.3021 -6.2788,0.8435 l 1.593,-15.36914 c 1.4355,-0.68526 3.5086,-1.18704 5.8104,-1.18704 z m 19.2112,0 c 2.3224,0 4.4163,0.49936 5.8415,1.18704 l 1.5932,15.36914 c -1.8812,-0.5469 -4.0326,-0.8435 -6.3101,-0.8435 -3.1941,0.1145 -6.0706,0.6355 -8.7153,1.7806 l 0,-14.96301 c 1.9961,-1.96895 5.1016,-2.51276 7.5907,-2.53027 z m 14.4944,0 c 3.2364,0.11151 6.52,0.49943 8.2156,3.43617 l 2.7489,13.80721 c -2.6663,-1.0027 -5.7464,-1.5152 -8.1531,-1.5307 -2.1192,0 -4.0898,0.2746 -5.8727,0.7497 l -1.6243,-15.71267 c 1.3048,-0.43732 2.9261,-0.74971 4.6856,-0.74971 z m -51.0115,19.71118 c 2.0495,0 3.9493,0.3117 5.4667,0.7809 l -1.6556,16.0251 c -1.9938,-0.5029 -4.2444,-0.781 -6.6537,-0.781 -3.336699,0.1337 -6.473199,0.5521 -9.277699,1.6556 l 2.8115,-14.2757 c 2.3148,-2.8281 6.261699,-3.3856 9.308799,-3.4049 z m 16.1813,0 c 3.2408,0.1203 6.2454,0.5207 8.7153,2.5927 l 0,15.3066 c -3.1456,-1.2818 -6.9237,-1.8576 -9.8398,-1.8743 -2.6286,0 -5.0922,0.3114 -7.216,0.9059 l 1.6243,-15.6814 c 1.6538,-0.7237 4.0547,-1.2495 6.7162,-1.2495 z m 21.4604,0 c 2.6825,0 5.1034,0.5509 6.7474,1.2807 l 1.6244,15.6815 c -2.1323,-0.6017 -4.5777,-0.9372 -7.2159,-0.9372 -3.6096,0.1008 -6.8663,0.6546 -9.9025,1.9055 l 0,-15.3065 c 2.3892,-2.0784 5.92,-2.6062 8.7466,-2.624 z m 16.1812,0 c 4.0095,0 9.3089,3.3737 9.3089,3.3737 l 2.8426,14.3069 c -3.0163,-1.122 -6.569,-1.64 -9.3088,-1.6556 -2.4079,0 -4.6563,0.2766 -6.6537,0.781 l -1.6556,-16.0251 c 1.5173,-0.4692 3.4171,-0.7809 5.4666,-0.7809 z m -56.6655,20.0235 c 3.287,0 6.2589,0.616 8.1218,1.4681 0.2567,0.1228 0.5399,0.1898 0.8245,0.1951 0.2845,0.01 0.57,-0.051 0.8312,-0.1638 1.8766,-0.8546 4.8347,-1.4994 8.1219,-1.4994 3.6852,0.1444 7.1806,0.5239 10.0585,2.8426 0.8048,0.656 2.9388,0.6781 3.6236,0 2.7794,-2.2998 6.7945,-2.8236 10.0587,-2.8426 3.2763,0 6.2449,0.6448 8.1218,1.4994 0.259,0.1178 0.5433,0.1794 0.8278,0.1794 0.2845,0 0.5688,-0.062 0.8278,-0.1794 1.8767,-0.8546 4.8143,-1.4994 8.0906,-1.4994 2.6632,0 5.1057,0.4123 6.9348,1.0308 1.2653,0.4453 2.4468,1.1465 3.3113,2.093 l 0,1.3432 c -0.6305,-0.3099 -1.3117,-0.5999 -2.0305,-0.8434 -2.3386,-0.7922 -5.1597,-1.2183 -8.2156,-1.2183 -3.3722,0 -6.4536,0.5269 -8.9341,1.4994 -2.4804,-0.9725 -5.5617,-1.4994 -8.9339,-1.4994 -3.0559,0 -5.8771,0.4261 -8.2157,1.2183 -1.3949,0.4725 -2.6375,1.0697 -3.6547,1.843 -3.4978,-2.3648 -8.1655,-3.0416 -11.8704,-3.0613 -3.38,0 -6.4849,0.5273 -8.9654,1.4994 -2.4755,-0.9732 -5.555,-1.4994 -8.934,-1.4994 -3.748499,0.092 -7.095199,0.6391 -10.214799,2.0617 l 0,-1.3745 c 2.3752,-2.4946 6.95,-3.0534 10.214799,-3.0925 z" fill="#000000" fill-opacity="1" fill-rule="evenodd" stroke="none" marker="none" visibility="visible" display="inline" overflow="visible"/></g><text x="0" y="115" fill="#000000" font-size="5px" font-weight="bold" font-family="'Helvetica Neue', Helvetica, Arial-Unicode, Arial, Sans-serif">Created by alerma</text><text x="0" y="120" fill="#000000" font-size="5px" font-weight="bold" font-family="'Helvetica Neue', Helvetica, Arial-Unicode, Arial, Sans-serif">from the Noun Project</text></svg>